# xmcd
#
# Track frame offsets:
#	150
#	14095
#	28462
#	42718
#	60989
#	73807
#	87948
#	100020
#	113637
#	126022
#	142077
#	156311
#	178457
#
# Disc length: 2547 seconds
#
# Revision: 2
# Processed by: cddbd v1.5.2PL0 Copyright (c) Steve Scherf et al.
# Submitted via: EasyCDDAExtractor 9.0.0.1
#
DISCID=c309f10d
DTITLE=Various Artist - Glaube - Liebe - Heimat - CD 1
DYEAR=2002
DGENRE=Folklore
TTITLE0=Die Ladiner - Ohne Heimat
TTITLE1=Die Mayrhofner - Der Herrgottsjodler
TTITLE2=Alpentrio Tirol - Da drob´n auf´m Berg steht a Kircherl
TTITLE3=Ursprung Buam - Heimat der Berge
TTITLE4=Andy Graf - Das Ave Maria für einsame Herzen
TTITLE5=Psayrer and Barbara - Die Zeichen am Berg
TTITLE6=Kreuzjoch Duo - Ein kleines Kreuz
TTITLE7=Belsy - Madre di dio
TTITLE8=Die Hegl - Vergangene Zeiten (Walzerlied)
TTITLE9=Die Mayrhofner - Madonna im Alpenglüh´n
TTITLE10=Die Korntaler - Eine Herde weißer Schafe
TTITLE11=Alpentrio Tirol - Mama, i bitt´di schau oba
TTITLE12=Sigrid and Marina - Wenn ich ein Glöcklein wär
EXTD=
EXTT0=
EXTT1=
EXTT2=
EXTT3=
EXTT4=
EXTT5=
EXTT6=
EXTT7=
EXTT8=
EXTT9=
EXTT10=
EXTT11=
EXTT12=
PLAYORDER=
